<svg xmlns="http://www.w3.org/2000/svg" height="24" viewBox="0 -960 960 960" width="24"><path d="M180-840q-24 0-42 18t-18 42v520q0 24 18 42t42 18h600q24 0 42-18t18-42v-520q0-24-18-42t-42-18h-60v-60h-60v60H342v-60h-60v60h-102Zm0 600v-420h600v420H180Zm300-60q75 0 127.5-52.5T660-480q0-75-52.5-127.5T480-660q-75 0-127.5 52.5T300-480q0 75 52.5 127.5T480-300Zm0-60q-26 0-50-12t-40-34l44-42q9 15 24.5 22t31.5 7q42 0 71-29t29-71q0-42-29-71t-71-29q-42 0-71 29t-29 71h60l-78 78-82-82h60q0-66 47-112.5t113-46.5q66 0 113 46.5T600-480q0 66-47 113t-113 47Z"/></svg>
